<?xml version="1.0" encoding="UTF-8"?>
<svg version="1.1" xmlns="http://www.w3.org/2000/svg" width="500" height="500">
<path d="M0 0 C165 0 330 0 500 0 C500 165 500 330 500 500 C335 500 170 500 0 500 C0 335 0 170 0 0 Z " fill="#FEFEFE" transform="translate(0,0)"/>
<path d="M0 0 C3.63 0 7.26 0 11 0 C13.26410647 6.25958848 14.06042999 12.4230099 15 19 C15.33 12.73 15.66 6.46 16 0 C26.56 0 37.12 0 48 0 C48 2.97 48 5.94 48 9 C46.02 9 44.04 9 42 9 C42 22.86 42 36.72 42 51 C38.7 51 35.4 51 32 51 C32 37.47 32 23.94 32 10 C30.02 10 28.04 10 26 10 C26 23.53 26 37.06 26 51 C22.37 51 18.74 51 15 51 C14.01 45.39 13.02 39.78 12 34 C11.67 39.61 11.34 45.22 11 51 C7.37 51 3.74 51 0 51 C0 34.17 0 17.34 0 0 Z " fill="#427AC5" transform="translate(158,270)"/>
<path d="M0 0 C2.34114382 2.34114382 2.7545417 3.99017957 3.75 7.125 C7.28559069 17.00916958 12.91498524 22.81999321 22 28 C32.34008667 32.72677672 41.75195286 33.871897 52.9375 34.25 C55.12553338 34.34402558 57.31320251 34.44415954 59.50086975 34.54632568 C61.46621496 34.63504422 63.43220524 34.70912745 65.39819336 34.78222656 C68.97717876 34.99862018 72.45941611 35.4432525 76 36 C72.65486822 38.23008785 69.46053102 39.08880825 65.625 40.0625 C64.965 40.23587891 64.305 40.40925781 63.625 40.58789062 C56.33103859 42.48403 49.76589956 43.237341 42.25 43.3125 C40.82300781 43.35600586 40.82300781 43.35600586 39.3671875 43.40039062 C32.66758649 43.46004461 27.8548739 42.23689595 22 39 C21.14148438 38.53078125 20.28296875 38.0615625 19.3984375 37.578125 C10.84343844 31.96287465 5.57832939 25.6014801 2 16 C3.34169377 26.63994359 9.88826767 35.91475553 18.0234375 42.68359375 C32.09556979 52.86937904 48.96368691 52.94783819 65.5703125 50.31152344 C73.70678193 48.93304699 81.79034406 47.29866214 89.87109375 45.62890625 C112.88236196 40.8840449 137.38498872 40.78989417 159 51 C155.49614478 52.16795174 154.5115844 51.75615904 151.0625 50.6875 C125.16902651 43.28936472 100.08048743 49.01087061 75.25 57.625 C60.36019805 62.68402167 42.04633741 66.8346075 27 60 C14.53438547 53.5253226 6.56828414 44.99266299 1 32 C0.04109327 28.15151022 -0.11641993 24.56460576 -0.09765625 20.60546875 C-0.09443359 19.40341797 -0.09121094 18.20136719 -0.08789062 16.96289062 C-0.07951172 15.71701172 -0.07113281 14.47113281 -0.0625 13.1875 C-0.05798828 11.92228516 -0.05347656 10.65707031 -0.04882812 9.35351562 C-0.03706251 6.2356289 -0.02062272 3.11783867 0 0 Z " fill="#3E77C4" transform="translate(164,199)"/>
<path d="M0 0 C3.3 0 6.6 0 10 0 C11.32867987 9.32655869 12.3972149 18.59337993 13 28 C13.91481323 25.25556031 14.25403403 23.11133909 14.5 20.25390625 C14.5825 19.33416016 14.665 18.41441406 14.75 17.46679688 C14.8325 16.50837891 14.915 15.54996094 15 14.5625 C15.1637626 12.66771551 15.33032483 10.77317043 15.5 8.87890625 C15.5721875 8.0391626 15.644375 7.19941895 15.71875 6.33422852 C16 4 16 4 17 0 C23.27 0 29.54 0 36 0 C36 16.83 36 33.66 36 51 C32.7 51 29.4 51 26 51 C25.67 39.12 25.34 27.24 25 15 C23.72518679 25.72481154 23.72518679 25.72481154 22.45727539 36.45043945 C22.29598549 37.79641668 22.13446166 39.1423659 21.97265625 40.48828125 C21.89140503 41.18546265 21.81015381 41.88264404 21.72644043 42.60095215 C21.36976036 45.54635347 20.94155587 48.17533239 20 51 C15.38 51 10.76 51 6 51 C5.140434 44.7018502 4.2860899 38.40302208 3.43652344 32.10351562 C3.14693411 29.96172073 2.85593247 27.82011629 2.56347656 25.67871094 C2.1427434 22.59619652 1.72713624 19.5130272 1.3125 16.4296875 C1.18125732 15.47633514 1.05001465 14.52298279 0.91479492 13.54074097 C0.30780318 8.99059283 -0.16082549 4.60362967 0 0 Z " fill="#4179C4" transform="translate(300,270)"/>
<path d="M0 0 C18 0 18 0 23 3 C25.41428732 7.08592729 25.30660248 11.34392889 25.30078125 15.96875 C25.30506638 16.72667847 25.3093515 17.48460693 25.31376648 18.26550293 C25.31949015 19.86237594 25.32002455 21.45927501 25.31567383 23.05615234 C25.31250998 25.4923155 25.33600932 27.92726766 25.36132812 30.36328125 C25.36360103 31.91926931 25.36430466 33.47526062 25.36328125 35.03125 C25.372491 35.75534058 25.38170074 36.47943115 25.39118958 37.22546387 C25.35067045 41.67634417 24.77058236 44.48811554 22 48 C18 51 18 51 0 51 C0 34.17 0 17.34 0 0 Z " fill="#3873C2" transform="translate(338,270)"/>
<path d="M0 0 C6.27 0 12.54 0 19 0 C24.81438101 5.81438101 25.1640646 7.24060883 25.23828125 14.859375 C25.25038887 16.03237152 25.25038887 16.03237152 25.26274109 17.22906494 C25.2765822 18.88673689 25.28730424 20.54443735 25.29516602 22.20214844 C25.31233991 24.72646879 25.35621865 27.24946586 25.40039062 29.7734375 C25.4105213 31.38540705 25.41903623 32.99738773 25.42578125 34.609375 C25.44328934 35.35958923 25.46079742 36.10980347 25.47883606 36.88275146 C25.45754397 42.07802191 24.37078644 45.05736059 21 49 C17 51 17 51 0 51 C0 34.17 0 17.34 0 0 Z " fill="#3974C2" transform="translate(241,270)"/>
<path d="M0 0 C2.80169398 1.3563341 3.91610376 2.57817465 6 5 C7.79728918 10.39186755 7.26556358 16.23796222 7.29516602 21.88598633 C7.3066553 23.41147154 7.32705882 24.93691752 7.35668945 26.4621582 C7.66583017 42.38376875 7.66583017 42.38376875 3 49 C-1.66165932 52.10777288 -6.54471087 51.73620636 -12 51 C-15.48242391 48.47353559 -16.65226822 47.04319535 -18 43 C-18.13284803 40.25471836 -18.21220873 37.53561651 -18.23828125 34.7890625 C-18.246353 33.98391205 -18.25442474 33.1787616 -18.26274109 32.34921265 C-18.276563 30.64624168 -18.28729362 28.94324323 -18.29516602 27.24023438 C-18.31239135 24.64139206 -18.35629387 22.0438183 -18.40039062 19.4453125 C-18.41051714 17.78907183 -18.41903337 16.13282038 -18.42578125 14.4765625 C-18.44328934 13.70245026 -18.46079742 12.92833801 -18.47883606 12.13076782 C-18.46378189 8.37074886 -18.14717072 6.22964602 -16.09838867 3.03271484 C-11.607428 -1.31769103 -5.93923946 -0.70465553 0 0 Z " fill="#3C75C3" transform="translate(150,270)"/>
<path d="M0 0 C5.94 0 11.88 0 18 0 C19.96547746 16.98172527 21.68410708 33.95531637 23 51 C19.7 51 16.4 51 13 51 C13 48.36 13 45.72 13 43 C10.69 43 8.38 43 6 43 C6 45.64 6 48.28 6 51 C2.7 51 -0.6 51 -4 51 C-3.36235018 33.93737034 -1.66610438 16.98588172 0 0 Z " fill="#3A75C2" transform="translate(368,270)"/>
<path d="M0 0 C6.93 0 13.86 0 21 0 C21 3.3 21 6.6 21 10 C17.7 10 14.4 10 11 10 C11 12.97 11 15.94 11 19 C13.97 19 16.94 19 20 19 C20 22.3 20 25.6 20 29 C16.7 29 13.4 29 10 29 C10 32.96 10 36.92 10 41 C13.63 41 17.26 41 21 41 C21 44.3 21 47.6 21 51 C14.07 51 7.14 51 0 51 C0 34.17 0 17.34 0 0 Z " fill="#3C76C3" transform="translate(207,270)"/>
<path d="M0 0 C6.6 0 13.2 0 20 0 C20 3.3 20 6.6 20 10 C16.7 10 13.4 10 10 10 C10 13.3 10 16.6 10 20 C13.3 20 16.6 20 20 20 C20 22.97 20 25.94 20 29 C16.7 29 13.4 29 10 29 C10 32.96 10 36.92 10 41 C13.63 41 17.26 41 21 41 C21 44.3 21 47.6 21 51 C14.07 51 7.14 51 0 51 C0 34.17 0 17.34 0 0 Z " fill="#3973C2" transform="translate(268,270)"/>
<path d="M0 0 C6.93 0 13.86 0 21 0 C21 3.3 21 6.6 21 10 C17.7 10 14.4 10 11 10 C11 12.64 11 15.28 11 18 C13.97 18 16.94 18 20 18 C20 21.3 20 24.6 20 28 C17.03 28 14.06 28 11 28 C11 35.59 11 43.18 11 51 C7.37 51 3.74 51 0 51 C0 34.17 0 17.34 0 0 Z " fill="#4179C4" transform="translate(110,270)"/>
<path d="M0 0 C2.34114382 2.34114382 2.7545417 3.99017957 3.75 7.125 C7.28559069 17.00916958 12.91498524 22.81999321 22 28 C32.34008667 32.72677672 41.75195286 33.871897 52.9375 34.25 C55.12553338 34.34402558 57.31320251 34.44415954 59.50086975 34.54632568 C61.46621496 34.63504422 63.43220524 34.70912745 65.39819336 34.78222656 C68.97717876 34.99862018 72.45941611 35.4432525 76 36 C72.65486822 38.23008785 69.46053102 39.08880825 65.625 40.0625 C64.965 40.23587891 64.305 40.40925781 63.625 40.58789062 C56.33103859 42.48403 49.76589956 43.237341 42.25 43.3125 C40.82300781 43.35600586 40.82300781 43.35600586 39.3671875 43.40039062 C32.66758649 43.46004461 27.8548739 42.23689595 22 39 C21.14148438 38.53078125 20.28296875 38.0615625 19.3984375 37.578125 C10.84343844 31.96287465 5.57832939 25.6014801 2 16 C1.34 16 0.68 16 0 16 C0 10.72 0 5.44 0 0 Z " fill="#74D0E2" transform="translate(164,199)"/>
<path d="M0 0 C7.26 0 14.52 0 22 0 C22 2.97 22 5.94 22 9 C20.02 9 18.04 9 16 9 C16 22.86 16 36.72 16 51 C12.7 51 9.4 51 6 51 C6 37.14 6 23.28 6 9 C4.02 9 2.04 9 0 9 C0 6.03 0 3.06 0 0 Z " fill="#3A74C2" transform="translate(184,270)"/>
<path d="M0 0 C2.97 0 5.94 0 9 0 C9 16.83 9 33.66 9 51 C6.03 51 3.06 51 0 51 C0 34.17 0 17.34 0 0 Z " fill="#3873C2" transform="translate(327,270)"/>
<path d="M0 0 C2.475 0.495 2.475 0.495 5 1 C5 11.23 5 21.46 5 32 C2.525 32.495 2.525 32.495 0 33 C0 22.11 0 11.22 0 0 Z " fill="#EBF1F9" transform="translate(348,279)"/>
<path d="M0 0 C2.475 0.495 2.475 0.495 5 1 C5 11.23 5 21.46 5 32 C2.525 32.495 2.525 32.495 0 33 C0 22.11 0 11.22 0 0 Z " fill="#ECF1F9" transform="translate(251,279)"/>
<path d="M0 0 C2.0625 0.4375 2.0625 0.4375 4 1 C4.02469321 5.2358357 4.04285671 9.47163342 4.05493164 13.70751953 C4.05996474 15.1489332 4.06679173 16.59034176 4.07543945 18.03173828 C4.08754983 20.10190085 4.09323847 22.17199601 4.09765625 24.2421875 C4.10289307 25.4885498 4.10812988 26.73491211 4.11352539 28.01904297 C4 31 4 31 3 33 C1.68 32.67 0.36 32.34 -1 32 C-1.02465504 27.60343827 -1.04283842 23.2069128 -1.05493164 18.81030273 C-1.05997121 17.31355082 -1.06680287 15.81680384 -1.07543945 14.32006836 C-1.08752159 12.17300193 -1.09323191 10.02600038 -1.09765625 7.87890625 C-1.10289307 6.5854126 -1.10812988 5.29191895 -1.11352539 3.95922852 C-1 1 -1 1 0 0 Z " fill="#EBF1F9" transform="translate(143,279)"/>
<path d="M0 0 C0.33 0 0.66 0 1 0 C1.10957031 0.61488281 1.21914063 1.22976562 1.33203125 1.86328125 C1.49058594 2.67152344 1.64914062 3.47976562 1.8125 4.3125 C1.96332031 5.11300781 2.11414063 5.91351563 2.26953125 6.73828125 C3.09098543 9.28171425 3.91145827 10.36192805 6 12 C8.60611077 12.72197162 8.60611077 12.72197162 11 13 C10.67 13.66 10.34 14.32 10 15 C8.865625 15.37125 7.73125 15.7425 6.5625 16.125 C4.08974586 17.09281976 3.21846767 17.52445615 2.09375 19.97265625 C1.46809729 22.4365345 1.46809729 22.4365345 1 26 C0.67 26 0.34 26 0 26 C-0.10054688 25.38511719 -0.20109375 24.77023438 -0.3046875 24.13671875 C-0.93259024 21.44017753 -1.56270988 19.37721884 -3 17 C-6.22067154 15.31964963 -9.42884145 14.58290956 -13 14 C-13 13.67 -13 13.34 -13 13 C-11.01432292 12.77213542 -9.02864583 12.54427083 -7.04296875 12.31640625 C-4.80603607 12.02829265 -4.80603607 12.02829265 -2 11 C-1.34 7.37 -0.68 3.74 0 0 Z " fill="#78D2E3" transform="translate(273,161)"/>
<path d="M0 0 C0 10.56 0 21.12 0 32 C-0.33 32 -0.66 32 -1 32 C-1.67526622 24.30678839 -2.11527631 16.72351299 -2 9 C-4.97 9 -7.94 9 -11 9 C-11 6.36 -11 3.72 -11 1 C-9.35422741 0.83273455 -7.70838013 0.66620388 -6.0625 0.5 C-4.68771484 0.36078125 -4.68771484 0.36078125 -3.28515625 0.21875 C-1 0 -1 0 0 0 Z " fill="#E1EAF5" transform="translate(132,279)"/>
<path d="M0 0 C6.4 -0.36923077 6.4 -0.36923077 9.4375 1.5 C9.953125 1.995 10.46875 2.49 11 3 C10.6875 6.375 10.6875 6.375 10 10 C6.3558226 12.4294516 4.28758728 12.16179575 0 12 C0 8.04 0 4.08 0 0 Z " fill="#6995D1" transform="translate(180,326)"/>
<path d="M0 0 C6.625 -0.25 6.625 -0.25 10 2 C10.37033222 5.39471203 10.60921702 7.88907484 8.9375 10.9375 C5.98831309 12.55479605 3.29132441 12.18630138 0 12 C0 8.04 0 4.08 0 0 Z " fill="#6290CE" transform="translate(228,326)"/>
<path d="M0 0 C2.5 0.25 2.5 0.25 4.5 2.25 C4.765625 4.125 4.765625 4.125 4.75 6.25 C4.75515625 6.95125 4.7603125 7.6525 4.765625 8.375 C4.5 10.25 4.5 10.25 2.5 12.25 C0 12.5 0 12.5 -2.5 12.25 C-4.5 10.25 -4.5 10.25 -4.765625 8.375 C-4.76046875 7.67375 -4.7553125 6.9725 -4.75 6.25 C-4.75515625 5.54875 -4.7603125 4.8475 -4.765625 4.125 C-4.31971142 0.97737476 -3.03899237 0.30389924 0 0 Z " fill="#A7C1E4" transform="translate(315.5,325.75)"/>
<path d="M0 0 C0.66 0 1.32 0 2 0 C2.66 8.58 3.32 17.16 4 26 C2.35 26 0.7 26 -1 26 C-0.67 17.42 -0.34 8.84 0 0 Z " fill="#D4E0F1" transform="translate(376,279)"/>
<path d="M0 0 C2.5625 0.1875 2.5625 0.1875 4.5625 2.1875 C4.28567437 6.43215971 3.37895906 9.00367671 0.5625 12.1875 C-0.0975 11.8575 -0.7575 11.5275 -1.4375 11.1875 C-1.1075 10.5275 -0.7775 9.8675 -0.4375 9.1875 C-1.7575 8.1975 -3.0775 7.2075 -4.4375 6.1875 C-3.3735 0.2595 -3.3735 0.2595 0 0 Z " fill="#618FCE" transform="translate(299.4375,325.8125)"/>
<path d="M0 0 C0.33 0 0.66 0 1 0 C1.2475 1.093125 1.495 2.18625 1.75 3.3125 C3.02002851 7.05908409 3.65756352 8.10595266 7 10 C5.824375 10.61875 5.824375 10.61875 4.625 11.25 C1.94108344 13.0392777 1.11901051 14.04988139 0 17 C-0.4125 16.236875 -0.825 15.47375 -1.25 14.6875 C-2.95875809 12.0633358 -4.41017753 10.69678024 -7 9 C-6.21625 8.814375 -5.4325 8.62875 -4.625 8.4375 C-1.60623658 7.16038373 -1.60623658 7.16038373 -0.6875 3.375 C-0.460625 2.26125 -0.23375 1.1475 0 0 Z " fill="#7DD4E4" transform="translate(324,227)"/>
<path d="M0 0 C2 3 2 3 2.3125 5.0625 C2.85095021 7.2976067 2.85095021 7.2976067 5.5625 8.25 C6.366875 8.4975 7.17125 8.745 8 9 C7.401875 9.20625 6.80375 9.4125 6.1875 9.625 C3.18981233 11.50926082 2.38638224 13.81132084 1 17 C0.71125 16.38125 0.4225 15.7625 0.125 15.125 C-0.93720042 12.86674235 -0.93720042 12.86674235 -3 11 C-5.57061311 10.35232207 -5.57061311 10.35232207 -8 10 C-5 8 -5 8 -2 7 C-0.77030122 3.48809191 -0.77030122 3.48809191 0 0 Z " fill="#4C81C8" transform="translate(181,178)"/>
<path d="M0 0 C0.3125 2.6875 0.3125 2.6875 0 6 C-2.5 8.875 -2.5 8.875 -5 11 C-4.67 10.01 -4.34 9.02 -4 8 C-4.99 7.4121875 -4.99 7.4121875 -6 6.8125 C-8 5 -8 5 -8.25 2.3125 C-8.1675 1.549375 -8.085 0.78625 -8 0 C-5.13822943 -1.43088528 -3.06624227 -0.59991697 0 0 Z " fill="#598ACC" transform="translate(288,327)"/>
<path d="M0 0 C2.31 0 4.62 0 7 0 C7 0.66 7 1.32 7 2 C5.35 2 3.7 2 2 2 C2 2.99 2 3.98 2 5 C3.65 5 5.3 5 7 5 C7 5.66 7 6.32 7 7 C5.35 7 3.7 7 2 7 C2 7.99 2 8.98 2 10 C3.65 10 5.3 10 7 10 C7 10.66 7 11.32 7 12 C4.69 12 2.38 12 0 12 C0 8.04 0 4.08 0 0 Z " fill="#6693D0" transform="translate(198,326)"/>
<path d="M0 0 C1.2065625 0.0309375 1.2065625 0.0309375 2.4375 0.0625 C3.0975 1.3825 3.7575 2.7025 4.4375 4.0625 C3.7775 4.0625 3.1175 4.0625 2.4375 4.0625 C2.1075 3.4025 1.7775 2.7425 1.4375 2.0625 C0.4475 2.0625 -0.5425 2.0625 -1.5625 2.0625 C-1.5625 2.7225 -1.5625 3.3825 -1.5625 4.0625 C0.4175 5.0525 2.3975 6.0425 4.4375 7.0625 C4.1075 8.7125 3.7775 10.3625 3.4375 12.0625 C1.4575 12.0625 -0.5225 12.0625 -2.5625 12.0625 C-3.2225 10.7425 -3.8825 9.4225 -4.5625 8.0625 C-3.9025 8.0625 -3.2425 8.0625 -2.5625 8.0625 C-2.2325 8.7225 -1.9025 9.3825 -1.5625 10.0625 C-0.5725 10.0625 0.4175 10.0625 1.4375 10.0625 C1.4375 9.4025 1.4375 8.7425 1.4375 8.0625 C-0.5425 7.0725 -2.5225 6.0825 -4.5625 5.0625 C-3.43829114 0.08386076 -3.43829114 0.08386076 0 0 Z " fill="#6290CF" transform="translate(216.5625,325.9375)"/>
<path d="M0 0 C1.98 0 3.96 0 6 0 C6.625 2.875 6.625 2.875 7 6 C5 8 5 8 2.375 8.125 C1.59125 8.08375 0.8075 8.0425 0 8 C0 5.36 0 2.72 0 0 Z " fill="#FCFDFE" transform="translate(182,328)"/>
<path d="M0 0 C2.375 -0.125 2.375 -0.125 5 0 C5.66 0.66 6.32 1.32 7 2 C6.44444444 6.55555556 6.44444444 6.55555556 5 8 C3.33382885 8.04063832 1.66611905 8.042721 0 8 C0 5.36 0 2.72 0 0 Z " fill="#FBFCFD" transform="translate(230,328)"/>
<path d="M0 0 C6.59704815 0.23560886 12.00262235 2.35771271 18 5 C14.43467498 6.18844167 13.22403174 5.69134014 9.6875 4.625 C5.79899639 3.49558052 2.02201984 2.54351619 -2 2 C-1.34 1.34 -0.68 0.68 0 0 Z " fill="#6D98D2" transform="translate(305,245)"/>
<path d="M0 0 C1.98 0.495 1.98 0.495 4 1 C4 2.32 4 3.64 4 5 C2.35 5 0.7 5 -1 5 C-0.67 3.35 -0.34 1.7 0 0 Z " fill="#F4F7FB" transform="translate(298,327)"/>
<path d="M0 0 C0.99 0 1.98 0 3 0 C3.33 1.32 3.66 2.64 4 4 C2.35 4.33 0.7 4.66 -1 5 C-1 1 -1 1 0 0 Z " fill="#F1F5FA" transform="translate(283,327)"/>
<path d="M0 0 C1.53166168 4.08443115 0.63081652 7.79455657 0 12 C-0.33 12 -0.66 12 -1 12 C-1.33 8.37 -1.66 4.74 -2 1 C-1.34 0.67 -0.68 0.34 0 0 Z " fill="#C7D7ED" transform="translate(314,291)"/>
<path d="M0 0 C0.33 0.99 0.66 1.98 1 3 C1.66 3 2.32 3 3 3 C3 3.66 3 4.32 3 5 C2.34 5 1.68 5 1 5 C0.67 5.99 0.34 6.98 0 8 C-1.125 5.6875 -1.125 5.6875 -2 3 C-1.34 2.01 -0.68 1.02 0 0 Z " fill="#5B8BCC" transform="translate(194,171)"/>
</svg>
